<svg xmlns="http://www.w3.org/2000/svg" width="40" height="40" viewBox="0 0 40 40"><g transform="translate(0 20)"><circle data-name="Ellipse 1" cx="20" cy="20" r="20" transform="translate(0 -20)"/><g data-name="Group 1"><path data-name="Path 3" d="M26.787 3.071a20.891 20.891 0 00-1.511-1.52c-.461-.45-.49-.711-.12-1.23.4-.567.84-1.112 1.249-1.676a6.087 6.087 0 00.972-1.685c.127-.4.015-.579-.4-.65a1.272 1.272 0 00-.217-.013h-2.444a.546.546 0 00-.574.394c-.144.361-.292.721-.463 1.069a8.786 8.786 0 01-1.431 2.2c-.134.142-.282.322-.507.248-.28-.1-.363-.564-.358-.721v-2.821c-.054-.4-.144-.583-.544-.661h-2.541a.808.808 0 00-.69.343c-.1.122-.136.2.079.243a.847.847 0 01.722.775 8.665 8.665 0 01.036 2.031 1.888 1.888 0 01-.13.58.342.342 0 01-.581.171 2.358 2.358 0 01-.564-.619 13.642 13.642 0 01-1.489-2.773.646.646 0 00-.61-.457 62.056 62.056 0 00-2.2 0c-.441.008-.573.223-.393.623a27.3 27.3 0 002.848 5.077 7.092 7.092 0 002.164 2.025 5.754 5.754 0 003.215.692c.532-.025.691-.163.716-.693a2.347 2.347 0 01.237-1.049.469.469 0 01.748-.182 2.121 2.121 0 01.4.36c.3.327.588.665.9.981a1.738 1.738 0 001.431.583h2.246c.362-.024.55-.467.342-.871a4.325 4.325 0 00-.538-.774z" fill="#fff"/></g></g></svg>